<?xml version="1.0" encoding="UTF-8"?>
<!DOCTYPE svg PUBLIC "-//W3C//DTD SVG 1.1//EN" "http://www.w3.org/Graphics/SVG/1.1/DTD/svg11.dtd">
<!-- Creator: CorelDRAW 2018 (64-Bit) -->
<svg xmlns="http://www.w3.org/2000/svg" xml:space="preserve" width="8.4666mm" height="8.4666mm" version="1.1" style="shape-rendering:geometricPrecision; text-rendering:geometricPrecision; image-rendering:optimizeQuality; fill-rule:evenodd; clip-rule:evenodd"
viewBox="0 0 846.66 846.66"
 xmlns:xlink="http://www.w3.org/1999/xlink">
 <defs>
  <style type="text/css">
   <![CDATA[
    .fil0 {fill:white}
   ]]>
  </style>
 </defs>
 <g id="Слой_x0020_1">
  <metadata id="CorelCorpID_0Corel-Layer"/>
  <g id="_392596956192">
   <path class="fil0" d="M97.25 212.12c0,76.71 62.18,138.89 138.89,138.89 76.71,0 138.89,-62.18 138.89,-138.89 0,-76.71 -62.18,-138.89 -138.89,-138.89 -76.71,0 -138.89,62.18 -138.89,138.89z"/>
   <polygon class="fil0" points="196.82,462.06 275.46,598.26 354.1,462.06 429.95,505.85 275.46,773.43 196.82,637.23 196.82,637.23 118.18,773.43 42.33,729.64 "/>
   <polygon class="fil0" points="804.33,73.23 643.95,351.01 479.21,351.01 639.59,73.23 "/>
   <polygon class="fil0" points="767.7,491.81 515.83,491.81 515.83,743.68 767.7,743.68 "/>
  </g>
 </g>
</svg>
